Coordinates
version=1
nRows=18
nColumns=63
inDegrees=yes

Units are S.I. units (second, meters, Newtons, ...)
If the header above contains a line with 'inDegrees', this indicates whether rotational values are in degrees (yes) or radians (no).

endheader
time	pelvis_tilt	pelvis_list	pelvis_rotation	pelvis_tx	pelvis_ty	pelvis_tz	hip_flexion_r	hip_adduction_r	hip_rotation_r	knee_angle_r	knee_angle_r_beta	ankle_angle_r	subtalar_angle_r	mtp_angle_r	hip_flexion_l	hip_adduction_l	hip_rotation_l	knee_angle_l	knee_angle_l_beta	ankle_angle_l	subtalar_angle_l	mtp_angle_l	L5_S1_Flex_Ext	L5_S1_Lat_Bending	L5_S1_axial_rotation	L4_L5_Flex_Ext	L4_L5_Lat_Bending	L4_L5_axial_rotation	L3_L4_Flex_Ext	L3_L4_Lat_Bending	L3_L4_axial_rotation	L2_L3_Flex_Ext	L2_L3_Lat_Bending	L2_L3_axial_rotation	L1_L2_Flex_Ext	L1_L2_Lat_Bending	L1_L2_axial_rotation	L1_T12_Flex_Ext	L1_T12_Lat_Bending	L1_T12_axial_rotation	Abs_r3	Abs_r2	Abs_r1	Abs_t1	Abs_t2	neck_flexion	neck_bending	neck_rotation	arm_flex_r	arm_add_r	arm_rot_r	elbow_flex_r	pro_sup_r	wrist_flex_r	wrist_dev_r	arm_flex_l	arm_add_l	arm_rot_l	elbow_flex_l	pro_sup_l	wrist_flex_l	wrist_dev_l
2.800000	1.164257	-3.315211	98.941875	0.170732	1.001808	0.441344	-1.718207	1.765229	-6.574141	2.980002	0.052011	31.695366	8.523277	0.000000	0.234803	-1.529695	16.836100	0.705796	0.012318	31.435734	-11.582703	0.000000	0.051342	0.471458	-1.637033	0.095347	0.627040	-1.739348	0.084350	1.146304	-1.739348	0.058679	1.146304	-1.432404	0.047676	0.961398	-1.330090	0.029337	0.730289	-1.227775	0.366731	5.333231	-9.104689	0.000000	0.000000	27.811283	-4.493376	9.076857	2.010691	-15.041012	97.982116	11.831577	6.427856	-4.099958	-15.230903	1.517642	-10.502473	122.038810	8.983012	11.636346	-7.384896	-6.857460
2.816667	1.050728	-3.305735	98.867002	0.170985	1.001803	0.441529	-1.676939	1.635479	-6.766470	3.025161	0.052799	31.897515	8.988270	0.000000	0.223005	-1.426835	17.111709	0.695264	0.012135	31.326890	-12.027987	0.000000	0.049862	0.456581	-1.626816	0.092599	0.607253	-1.728492	0.081919	1.110131	-1.728492	0.056987	1.110131	-1.423464	0.046302	0.931060	-1.321788	0.028491	0.707244	-1.220112	0.356160	5.164934	-9.047865	0.000000	0.000000	27.776223	-4.308506	8.976019	2.347384	-14.857739	99.284152	11.659397	6.374869	-4.346833	-15.464592	1.586188	-10.508818	124.174034	8.852687	11.783982	-7.662068	-6.536713
2.833333	0.888026	-3.299306	98.774875	0.171324	1.001796	0.441782	-1.628537	1.456158	-6.940363	3.089148	0.053916	32.098483	9.408691	0.000000	0.210954	-1.274755	17.319273	0.686152	0.011976	31.229649	-12.394065	0.000000	0.044294	0.434299	-1.613390	0.082259	0.577618	-1.714226	0.072771	1.055955	-1.714226	0.050624	1.055955	-1.411716	0.041132	0.885623	-1.310879	0.025310	0.672730	-1.210042	0.316389	4.912881	-8.973189	0.000000	0.000000	27.710747	-4.060964	8.829531	2.701535	-14.643244	100.693030	11.469970	6.388086	-4.602385	-15.714099	1.644982	-10.577440	125.651226	8.765742	12.002269	-7.883322	-6.262240
2.850000	0.745974	-3.301330	98.639606	0.171721	1.001791	0.442132	-1.537929	1.290575	-7.178084	3.209281	0.056013	32.289336	9.898334	0.000000	0.210668	-1.140520	17.556090	0.676635	0.011810	31.115919	-12.867429	0.000000	0.035867	0.414969	-1.588190	0.066609	0.551909	-1.687452	0.058927	1.008956	-1.687452	0.040993	1.008956	-1.389666	0.033307	0.846205	-1.290404	0.020495	0.642787	-1.191143	0.256198	4.694213	-8.833036	0.000000	0.000000	27.637847	-3.822633	8.693676	3.072010	-14.429829	102.386130	11.226306	6.308567	-4.896066	-15.943562	1.746063	-10.625816	127.135293	8.655399	11.972995	-8.051798	-6.030852
2.866667	0.627581	-3.310864	98.456335	0.172141	1.001791	0.442567	-1.408373	1.141495	-7.440082	3.376034	0.058923	32.467687	10.418435	0.000000	0.221298	-1.025652	17.717053	0.668413	0.011666	31.016983	-13.306441	0.000000	0.024880	0.399978	-1.551464	0.046206	0.531971	-1.648431	0.040876	0.972507	-1.648431	0.028436	0.972507	-1.357531	0.023104	0.815636	-1.260565	0.014217	0.619567	-1.163598	0.177719	4.524636	-8.628778	0.000000	0.000000	27.552477	-3.595005	8.599298	3.431346	-14.250528	104.024088	10.978805	6.224950	-5.186499	-16.158631	1.873566	-10.658518	128.235293	8.561085	11.657901	-8.125433	-5.887856
2.883333	0.542267	-3.330942	98.261171	0.172520	1.001796	0.443075	-1.247223	1.021170	-7.740005	3.563439	0.062194	32.631794	10.956401	0.000000	0.250585	-0.936988	17.937550	0.658612	0.011495	30.903996	-13.855730	0.000000	0.012853	0.390533	-1.511297	0.023869	0.519409	-1.605753	0.021116	0.949541	-1.605753	0.014689	0.949541	-1.322385	0.011935	0.796374	-1.227929	0.007344	0.604935	-1.133473	0.091805	4.417785	-8.405381	0.000000	0.000000	27.460887	-3.363038	8.563209	3.772911	-14.111329	105.583759	10.732198	6.086923	-5.479626	-16.345488	2.011627	-10.679320	128.717267	8.502461	11.154850	-8.126327	-5.827202
2.900000	0.496308	-3.360861	98.054173	0.172858	1.001808	0.443624	-1.065578	0.942829	-7.979940	3.744449	0.065353	32.765746	11.412750	0.000000	0.305120	-0.884438	17.787378	0.659228	0.011506	30.911714	-13.925461	0.000000	0.000537	0.387501	-1.469250	0.000998	0.515376	-1.561078	0.000883	0.942170	-1.561078	0.000614	0.942170	-1.285593	0.000499	0.790192	-1.193765	0.000307	0.600239	-1.101937	0.003838	4.383488	-8.171525	0.000000	0.000000	27.367805	-3.112555	8.623130	4.074716	-14.029233	106.717266	10.530938	6.053961	-5.751935	-16.478082	2.138695	-10.687095	128.313617	8.477621	10.747994	-8.074840	-5.791544
2.916667	0.491777	-3.397934	97.853000	0.173132	1.001830	0.444184	-0.864099	0.905331	-8.280422	3.929904	0.068590	32.898061	11.925224	0.000000	0.377609	-0.869189	17.542936	0.659952	0.011518	30.960248	-13.873275	0.000000	-0.011387	0.390976	-1.427815	-0.021147	0.519999	-1.517053	-0.018708	0.950620	-1.517053	-0.013014	0.950620	-1.249338	-0.010574	0.797279	-1.160100	-0.006507	0.605622	-1.070861	-0.081338	4.422803	-7.941078	0.000000	0.000000	27.282404	-2.873028	8.763307	4.357935	-13.990881	107.741915	10.335350	5.981594	-6.004430	-16.574632	2.285219	-10.666583	127.691011	8.453492	10.180483	-7.999448	-5.742034
2.933333	0.531307	-3.439277	97.690004	0.173317	1.001852	0.444708	-0.668941	0.921427	-8.527622	4.082434	0.071252	32.985259	12.315684	0.000000	0.462550	-0.895076	17.411775	0.656512	0.011458	30.988592	-13.942377	0.000000	-0.021535	0.400583	-1.391869	-0.039993	0.532776	-1.478861	-0.035380	0.973979	-1.478861	-0.024613	0.973979	-1.217886	-0.019998	0.816870	-1.130894	-0.012305	0.620504	-1.043902	-0.153825	4.531480	-7.741161	0.000000	0.000000	27.207071	-2.657840	8.946021	4.592711	-13.992392	108.419424	10.181585	5.751986	-6.188105	-16.634515	2.444886	-10.631229	126.846262	8.449042	9.614118	-7.935711	-5.647416
2.950000	0.596579	-3.477272	97.540073	0.173453	1.001882	0.445169	-0.485096	0.969472	-8.748878	4.221923	0.073686	33.034566	12.647864	0.000000	0.548147	-0.947685	16.886854	0.662954	0.011571	31.141694	-13.456751	0.000000	-0.030676	0.414153	-1.358625	-0.056968	0.550823	-1.443539	-0.050398	1.006970	-1.443539	-0.035060	1.006970	-1.188797	-0.028486	0.844540	-1.103882	-0.017528	0.641522	-1.018968	-0.219115	4.684976	-7.556262	0.000000	0.000000	27.149746	-2.450709	9.208059	4.761280	-14.035986	108.433990	10.101462	5.714937	-6.349879	-16.639995	2.593808	-10.589693	125.618902	8.454866	9.388162	-7.924723	-5.495870
2.966667	0.690022	-3.508655	97.416904	0.173535	1.001909	0.445545	-0.333124	1.059112	-8.825115	4.322632	0.075444	32.999504	12.750338	0.000000	0.621585	-1.028067	16.498365	0.665260	0.011611	31.237623	-13.141301	0.000000	-0.037685	0.431607	-1.327230	-0.069984	0.574037	-1.410182	-0.061912	1.049408	-1.410182	-0.043070	1.049408	-1.161326	-0.034994	0.880132	-1.078374	-0.021533	0.668559	-0.995422	-0.269178	4.882420	-7.381653	0.000000	0.000000	27.106265	-2.287963	9.481577	4.881276	-14.108742	108.161019	10.064069	5.661313	-6.456682	-16.618438	2.756340	-10.539326	124.390571	8.476161	9.297713	-7.952262	-5.286377
2.983333	0.795141	-3.533849	97.305452	0.173578	1.001931	0.445854	-0.192097	1.159985	-9.005295	4.439083	0.077477	32.957168	12.961545	0.000000	0.684011	-1.120320	15.887331	0.676299	0.011804	31.382163	-12.512537	0.000000	-0.042186	0.451085	-1.295100	-0.078343	0.599943	-1.376044	-0.069307	1.096767	-1.376044	-0.048214	1.096767	-1.133213	-0.039174	0.919852	-1.052269	-0.024105	0.698730	-0.971325	-0.301327	5.102761	-7.202960	0.000000	0.000000	27.077622	-2.161469	9.775950	4.915316	-14.211147	107.163590	10.111174	5.690612	-6.452009	-16.530693	2.899239	-10.503191	122.649224	8.534483	9.731670	-7.991654	-5.033217
3.000000	0.909288	-3.541956	97.234581	0.173570	1.001955	0.446074	-0.108982	1.286388	-8.993066	4.503065	0.078593	32.825844	12.872156	0.000000	0.718125	-1.223068	15.504727	0.681810	0.011900	31.433064	-12.158282	0.000000	-0.044725	0.471961	-1.265000	-0.083059	0.627708	-1.344063	-0.073478	1.147525	-1.344063	-0.051116	1.147525	-1.106875	-0.041531	0.962422	-1.027813	-0.025556	0.731067	-0.948750	-0.319465	5.338912	-7.035552	0.000000	0.000000	27.053950	-2.103595	10.043479	4.892596	-14.333798	105.857104	10.220740	5.690702	-6.378877	-16.412540	3.065988	-10.460442	121.198473	8.611811	10.134126	-8.048729	-4.745541
3.016667	1.025732	-3.534984	97.193897	0.173534	1.001979	0.446218	-0.076598	1.426819	-8.845316	4.522707	0.078936	32.641046	12.583399	0.000000	0.729979	-1.331087	15.160097	0.689399	0.012032	31.462247	-11.824283	0.000000	-0.045642	0.493215	-1.237793	-0.084761	0.655976	-1.315155	-0.074985	1.199203	-1.315155	-0.052164	1.199203	-1.083069	-0.042383	1.005764	-1.005707	-0.026080	0.763990	-0.928345	-0.326013	5.579348	-6.884235	0.000000	0.000000	27.031859	-2.076359	10.310180	4.827249	-14.466162	104.342027	10.370910	5.672115	-6.231729	-16.266900	3.223637	-10.422157	119.779137	8.707062	10.580875	-8.064247	-4.433360
3.033333	1.136319	-3.506120	97.180469	0.173476	1.002016	0.446293	-0.100049	1.569565	-8.595439	4.499543	0.078532	32.429214	12.158919	0.000000	0.711589	-1.437373	14.876836	0.695675	0.012142	31.466270	-11.549221	0.000000	-0.046660	0.513929	-1.213889	-0.086653	0.683526	-1.289757	-0.076658	1.249568	-1.289757	-0.053328	1.249568	-1.062153	-0.043329	1.048005	-0.986285	-0.026662	0.796076	-0.910417	-0.333290	5.813671	-6.751287	0.000000	0.000000	27.001688	-2.089794	10.574455	4.730531	-14.601559	102.716828	10.548186	5.660928	-6.044783	-16.120167	3.374418	-10.388874	118.518284	8.824492	11.016309	-8.046514	-4.097227
3.050000	1.222528	-3.457509	97.198190	0.173416	1.002065	0.446314	-0.173288	1.693766	-8.254774	4.442331	0.077533	32.222264	11.615446	0.000000	0.667637	-1.522898	14.658965	0.702297	0.012257	31.453881	-11.333624	0.000000	-0.048288	0.530902	-1.194309	-0.089675	0.706099	-1.268953	-0.079332	1.290835	-1.268953	-0.055188	1.290835	-1.045020	-0.044840	1.082615	-0.970376	-0.027592	0.822367	-0.895731	-0.344914	6.005668	-6.642386	0.000000	0.000000	26.951581	-2.106003	10.796578	4.601437	-14.722043	101.013901	10.737365	5.659855	-5.811182	-15.983718	3.509590	-10.369083	117.426740	8.954191	11.500257	-8.017585	-3.718775
3.066667	1.282410	-3.382526	97.253041	0.173374	1.002135	0.446280	-0.305390	1.798432	-7.865700	4.345596	0.075845	32.035365	11.018245	0.000000	0.591452	-1.589410	14.580254	0.705432	0.012312	31.420266	-11.261870	0.000000	-0.051989	0.543463	-1.180791	-0.096548	0.722806	-1.254590	-0.085412	1.321376	-1.254590	-0.059418	1.321376	-1.033192	-0.048277	1.108230	-0.959392	-0.029706	0.841824	-0.885593	-0.371351	6.147763	-6.567204	0.000000	0.000000	26.873066	-2.119493	10.981785	4.468974	-14.810321	99.609938	10.895101	5.639652	-5.613602	-15.882917	3.644575	-10.356141	116.874972	9.081712	11.836623	-7.958506	-3.309712
3.083333	1.301882	-3.279737	97.379654	0.173305	1.002224	0.446183	-0.499600	1.867316	-7.525167	4.219024	0.073636	31.892416	10.444769	0.000000	0.485057	-1.623576	14.587035	0.709212	0.012378	31.409544	-11.200361	0.000000	-0.057689	0.549342	-1.179666	-0.107134	0.730625	-1.253395	-0.094777	1.335671	-1.253395	-0.065933	1.335671	-1.032207	-0.053570	1.120219	-0.958478	-0.032964	0.850931	-0.884749	-0.412067	6.214269	-6.560946	0.000000	0.000000	26.762632	-2.162930	11.069393	4.312139	-14.862425	98.304490	11.029275	5.694600	-5.417517	-15.822211	3.766435	-10.368322	116.657309	9.212322	12.268998	-7.871458	-2.876163
